<svg xmlns="http://www.w3.org/2000/svg" viewBox="0 0 1314 1314">
    <title>logo</title>
    <path fill="#383838" d="M19.8,979.5S-6,629,182,234.31l137.4,21.83s22.05,198.22,64.11,305.58c0,0,51.06-134.13,155.11-267.68l121.91,20.1s1.5,161.63,21.27,276.29c0,0,32.36-119.69,111.56-254.5l118.62,19s13.78,151.39,53.18,262.77c0,0,56-121.09,125.59-232.28l115.73,19.72s-10,285.06,93.51,573.74L1167.24,980s-71.39-140.28-78.53-316.34c0,0-43.09,86.43-78.61,175.67l-102.3-4.59s-60.33-115.67-79.27-198.41c0,0-44.54,153.11-55.74,342.67H614.61s-72.71-181-85.86-365.43c0,0-58.24,104-95.69,203.49l-118.5-5.32s-60.7-121.27-91.82-229.46c0,0-49.12,190.65-19.12,396.72Z"/>
</svg>