<svg width="18" height="18" viewBox="0 0 18 18" version="1.1" xmlns="http://www.w3.org/2000/svg" xmlns:xlink="http://www.w3.org/1999/xlink">
<title>icon</title>
<desc>Created using Figma</desc>
<g id="Canvas" transform="translate(-1292 -33)">
<g id="icon" opacity="0.3">
<use xlink:href="#path0_fill" transform="translate(1292 33)" fill="#FFFFFF"/>
</g>
</g>
<defs>
<path id="path0_fill" fill-rule="evenodd" d="M 12.7066 13.936C 11.3682 15.0066 9.67053 15.6468 7.82337 15.6468C 3.50262 15.6468 0 12.1441 0 7.8234C 0 3.50266 3.50262 0 7.82337 0C 12.1441 0 15.6468 3.50266 15.6468 7.8234C 15.6468 9.67062 15.0066 11.3683 13.936 12.7067L 17.9999 16.7707L 16.7706 18L 12.7066 13.936ZM 13.9082 7.8234C 13.9082 11.184 11.184 13.9083 7.82337 13.9083C 4.46283 13.9083 1.7385 11.184 1.7385 7.8234C 1.7385 4.46282 4.46283 1.73854 7.82337 1.73854C 11.184 1.73854 13.9082 4.46282 13.9082 7.8234Z"/>
</defs>
</svg>
